<?xml version="1.0" encoding="UTF-8" standalone="no"?>
<svg viewBox="0 0 24 24" xmlns="http://www.w3.org/2000/svg">
  <defs>
    <linearGradient id="logoGradient" x1="0%" y1="0%" x2="100%" y2="100%">
      <stop offset="0%" style="stop-color:#4f46e5;stop-opacity:1" />
      <stop offset="100%" style="stop-color:#7c3aed;stop-opacity:1" />
    </linearGradient>
  </defs>
  <path fill="url(#logoGradient)" d="M12 2C13.1 2 14 2.9 14 4C14 5.1 13.1 6 12 6C10.9 6 10 5.1 10 4C10 2.9 10.9 2 12 2ZM21 9V7L15 7C14.64 7 14.31 7.14 14.07 7.38L12 9.45L9.93 7.38C9.69 7.14 9.36 7 9 7L3 7V9H8.6L12 12.4L15.4 9H21ZM12 13.5C11.2 13.5 10.5 14.2 10.5 15S11.2 16.5 12 16.5S13.5 15.8 13.5 15S12.8 13.5 12 13.5ZM12 18C10.34 18 9 19.34 9 21H15C15 19.34 13.66 18 12 18Z"/>
</svg>

